<mxfile host="Electron" agent="Mozilla/5.0 (Windows NT 10.0; Win64; x64) AppleWebKit/537.36 (KHTML, like Gecko) draw.io/24.7.17 Chrome/128.0.6613.36 Electron/32.0.1 Safari/537.36" version="24.7.17">
  <diagram name="Page-1" id="nk33O3myFzExoFOTdXr2">
    <mxGraphModel dx="875" dy="524" grid="1" gridSize="10" guides="1" tooltips="1" connect="1" arrows="1" fold="1" page="1" pageScale="1" pageWidth="850" pageHeight="1100" math="0" shadow="0">
      <root>
        <mxCell id="0" />
        <mxCell id="1" parent="0" />
        <mxCell id="1FUIMTPPymzSxELU6ke1-2" style="edgeStyle=orthogonalEdgeStyle;rounded=0;orthogonalLoop=1;jettySize=auto;html=1;" edge="1" parent="1" source="UBjv-P3hsI7ne-E2DAJY-2" target="1FUIMTPPymzSxELU6ke1-3">
          <mxGeometry relative="1" as="geometry">
            <mxPoint x="400" y="90" as="targetPoint" />
          </mxGeometry>
        </mxCell>
        <mxCell id="UBjv-P3hsI7ne-E2DAJY-2" value="START" style="rounded=1;whiteSpace=wrap;html=1;arcSize=50;" parent="1" vertex="1">
          <mxGeometry x="360" y="10" width="80" height="30" as="geometry" />
        </mxCell>
        <mxCell id="UBjv-P3hsI7ne-E2DAJY-3" value="END" style="rounded=1;whiteSpace=wrap;html=1;arcSize=50;" parent="1" vertex="1">
          <mxGeometry x="360" y="450" width="80" height="30" as="geometry" />
        </mxCell>
        <mxCell id="1FUIMTPPymzSxELU6ke1-5" value="" style="edgeStyle=orthogonalEdgeStyle;rounded=0;orthogonalLoop=1;jettySize=auto;html=1;" edge="1" parent="1" source="1FUIMTPPymzSxELU6ke1-3" target="1FUIMTPPymzSxELU6ke1-4">
          <mxGeometry relative="1" as="geometry" />
        </mxCell>
        <mxCell id="1FUIMTPPymzSxELU6ke1-3" value="&quot;Input A point&quot;&lt;div&gt;#ใส่ค่าให้ A(x1, y1)&lt;/div&gt;" style="shape=parallelogram;perimeter=parallelogramPerimeter;whiteSpace=wrap;html=1;fixedSize=1;" vertex="1" parent="1">
          <mxGeometry x="340" y="90" width="120" height="50" as="geometry" />
        </mxCell>
        <mxCell id="1FUIMTPPymzSxELU6ke1-7" value="" style="edgeStyle=orthogonalEdgeStyle;rounded=0;orthogonalLoop=1;jettySize=auto;html=1;" edge="1" parent="1" source="1FUIMTPPymzSxELU6ke1-4" target="1FUIMTPPymzSxELU6ke1-6">
          <mxGeometry relative="1" as="geometry" />
        </mxCell>
        <mxCell id="1FUIMTPPymzSxELU6ke1-4" value="&quot;Input B point&quot;&lt;div&gt;#ใส่ค่าให้ B(x2, y2)&lt;/div&gt;" style="shape=parallelogram;perimeter=parallelogramPerimeter;whiteSpace=wrap;html=1;fixedSize=1;" vertex="1" parent="1">
          <mxGeometry x="340" y="170" width="120" height="50" as="geometry" />
        </mxCell>
        <mxCell id="1FUIMTPPymzSxELU6ke1-9" value="" style="edgeStyle=orthogonalEdgeStyle;rounded=0;orthogonalLoop=1;jettySize=auto;html=1;" edge="1" parent="1" source="1FUIMTPPymzSxELU6ke1-6" target="1FUIMTPPymzSxELU6ke1-8">
          <mxGeometry relative="1" as="geometry" />
        </mxCell>
        <mxCell id="1FUIMTPPymzSxELU6ke1-6" value="(x1 + x2 ) / 2&amp;nbsp; = ใส่ในตัวแปร A&lt;div&gt;(y1 + y2 ) / 2 =&amp;nbsp;&lt;span style=&quot;background-color: initial;&quot;&gt;ใส่ในตัวแปร B&lt;/span&gt;&lt;br&gt;&lt;/div&gt;" style="whiteSpace=wrap;html=1;" vertex="1" parent="1">
          <mxGeometry x="305" y="250" width="190" height="50" as="geometry" />
        </mxCell>
        <mxCell id="1FUIMTPPymzSxELU6ke1-10" value="" style="edgeStyle=orthogonalEdgeStyle;rounded=0;orthogonalLoop=1;jettySize=auto;html=1;" edge="1" parent="1" source="1FUIMTPPymzSxELU6ke1-8" target="UBjv-P3hsI7ne-E2DAJY-3">
          <mxGeometry relative="1" as="geometry" />
        </mxCell>
        <mxCell id="1FUIMTPPymzSxELU6ke1-8" value="&quot;Mid Point of A and B is ( #A, #B )&quot;" style="shape=parallelogram;perimeter=parallelogramPerimeter;whiteSpace=wrap;html=1;fixedSize=1;" vertex="1" parent="1">
          <mxGeometry x="275" y="340" width="250" height="50" as="geometry" />
        </mxCell>
      </root>
    </mxGraphModel>
  </diagram>
</mxfile>
